<svg xmlns="http://www.w3.org/2000/svg" width="15" height="15" viewBox="0 0 15 15">
    <path fill-rule="evenodd" clip-rule="evenodd"
        d="M1.35355 0.646447C1.15829 0.451184 0.841709 0.451184 0.646447 0.646447C0.451184 0.841709 0.451184 1.15829 0.646447 1.35355L6.79293 7.50004L0.646522 13.6464C0.45126 13.8417 0.45126 14.1583 0.646522 14.3536C0.841784 14.5488 1.15837 14.5488 1.35363 14.3536L7.50004 8.20715L13.6464 14.3536C13.8417 14.5488 14.1583 14.5488 14.3536 14.3536C14.5488 14.1583 14.5488 13.8417 14.3536 13.6464L8.20715 7.50004L14.3536 1.35355C14.5489 1.15829 14.5489 0.841709 14.3536 0.646447C14.1584 0.451185 13.8418 0.451185 13.6465 0.646447L7.50004 6.79293L1.35355 0.646447Z" />
</svg>